<?xml version="1.0" encoding="utf-8"?>
<!-- Generator: Adobe Illustrator 16.0.0, SVG Export Plug-In . SVG Version: 6.00 Build 0)  -->
<!DOCTYPE svg PUBLIC "-//W3C//DTD SVG 1.1//EN" "http://www.w3.org/Graphics/SVG/1.1/DTD/svg11.dtd">
<svg version="1.1" id="Laag_1" xmlns="http://www.w3.org/2000/svg" xmlns:xlink="http://www.w3.org/1999/xlink" x="0px" y="0px"
	 width="556.792px" height="200.997px" viewBox="0 0 556.792 200.997" enable-background="new 0 0 556.792 200.997"
	 xml:space="preserve">
<g>
	<g>
		<g>
			<path fill="#FFFFFF" d="M98.255,185.506h1.161l5.736-32.53H93.418l-5.736,32.53h1.161c-2.901,0-4.669,2.352-5.181,5.25
				l-1.806,10.241h17.922l1.806-10.241C102.096,187.857,101.157,185.506,98.255,185.506z"/>
			<path fill="#FFFFFF" d="M99.129,120.588l-4.3,24.388h11.734l4.3-24.388c21.379-14,36.478-36.104,40.649-59.765l0.74-4.195
				h-11.737l-0.74,4.195c-3.431,19.459-15.635,37.672-32.97,49.498C93.643,98.495,87.858,80.283,91.289,60.823l0.74-4.195H80.295
				l-0.74,4.195C75.384,84.484,82.688,106.588,99.129,120.588z"/>
		</g>
		<path fill="#FFFFFF" d="M1.955,57.025h68.923l-1.955,11.088H40.447L26.85,145.226H14.753l13.597-77.112H0L1.955,57.025z"/>
		<path fill="#FFFFFF" d="M200.648,69.562c-4.181-1.301-8.118-1.953-11.813-1.953c-5.125,0-9.395,0.988-12.807,2.961
			c-3.417,1.975-5.426,4.684-6.033,8.127c-0.548,3.109-0.073,5.65,1.428,7.623c1.499,1.975,3.492,3.528,5.981,4.662
			c2.488,1.134,5.993,2.457,10.514,3.969c5.638,1.849,10.156,3.613,13.557,5.292c3.399,1.682,6.108,4.18,8.128,7.497
			c2.017,3.319,2.547,7.708,1.584,13.167c-0.889,5.04-3.034,9.45-6.429,13.23c-3.397,3.78-7.733,6.699-13.01,8.757
			c-5.277,2.06-11.109,3.087-17.491,3.087c-6.471,0-12.547-1.26-18.234-3.78c-5.688-2.52-10.388-5.878-14.1-10.079l7.262-10.458
			c3.474,4.116,7.641,7.288,12.498,9.513c4.855,2.227,9.763,3.339,14.72,3.339c5.879,0,10.725-1.153,14.535-3.465
			c3.809-2.31,6.061-5.438,6.758-9.387c0.548-3.107,0.075-5.671-1.417-7.687s-3.543-3.61-6.148-4.788
			c-2.609-1.175-6.178-2.477-10.714-3.906c-5.57-1.764-10.055-3.484-13.453-5.166c-3.401-1.679-6.093-4.157-8.076-7.434
			c-1.986-3.276-2.503-7.602-1.556-12.978c0.83-4.704,2.865-8.861,6.106-12.475c3.24-3.61,7.383-6.383,12.429-8.315
			c5.044-1.932,10.673-2.898,16.89-2.898c5.293,0,10.341,0.777,15.15,2.331c4.807,1.556,8.955,3.634,12.445,6.237l-6.951,10.836
			C208.747,72.819,204.829,70.866,200.648,69.562z"/>
		<path fill="#FFFFFF" d="M166.238,0H86.531c-3.85,0-7.461,2.616-8.025,5.814s2.125,5.814,5.975,5.814h3.75l-6.524,37h71.957
			l6.524-37h4c3.85,0,7.461-2.616,8.025-5.814S170.087,0,166.238,0z M143.899,37.436H95.413l4.551-25.808h48.486L143.899,37.436z"/>
	</g>
	<path fill="#FFFFFF" d="M230.07,94.788h30.113l-1.488,8.442h-30.113L230.07,94.788z"/>
	<g>
		<path fill="#FFFFFF" d="M344.464,62.154c-4.588-1.847-9.613-2.771-15.072-2.771c-7.73,0-15.202,1.89-22.42,5.67
			c-7.219,3.779-13.331,8.904-18.335,15.372c-5.005,6.469-8.173,13.481-9.506,21.042c-1.333,7.56-0.638,14.574,2.085,21.042
			c2.723,6.469,7.029,11.592,12.914,15.371s12.69,5.67,20.421,5.67c5.374,0,10.687-0.945,15.935-2.834
			c5.246-1.891,10.105-4.557,14.578-8.002l1.475,1.639c-4.77,3.697-9.934,6.551-15.497,8.566
			c-5.564,2.018-11.201,3.025-16.912,3.025c-8.149,0-15.332-2.016-21.551-6.049c-6.22-4.031-10.768-9.449-13.64-16.254
			c-2.876-6.803-3.608-14.195-2.201-22.175c1.407-7.979,4.75-15.392,10.033-22.239c5.28-6.846,11.737-12.264,19.372-16.254
			c7.633-3.989,15.523-5.985,23.672-5.985c5.711,0,10.973,1.008,15.783,3.024c4.811,2.016,8.955,4.831,12.436,8.441l-1.928,1.639
			C352.933,66.649,349.052,64.002,344.464,62.154z"/>
		<path fill="#FFFFFF" d="M425.216,87.228c3.693,4.536,4.831,10.836,3.409,18.9l-6.954,39.438h-2.521l6.954-39.438
			c1.289-7.308,0.255-12.998-3.102-17.073c-3.355-4.073-8.645-6.111-15.868-6.111c-8.683,0.169-15.937,2.961-21.763,8.379
			c-5.829,5.418-9.58,12.874-11.253,22.366l-5.621,31.877h-2.52l16.485-93.492h2.52l-8.309,47.124
			c3.136-5.879,7.346-10.458,12.628-13.733c5.28-3.276,11.373-4.956,18.276-5.04C415.643,80.424,421.522,82.692,425.216,87.228z"/>
		<path fill="#FFFFFF" d="M489.963,145.565l2.473-14.742c-3.73,4.957-8.142,8.654-13.232,11.088
			c-5.092,2.438-10.661,3.654-16.709,3.654c-6.217,0-10.987-1.764-14.313-5.291c-3.326-3.529-4.507-8.021-3.544-13.482
			c0.933-5.293,3.821-9.406,8.665-12.348c4.846-2.939,11.005-4.41,18.481-4.41h24.192l1.399-7.938
			c0.996-6.131,0.044-10.857-2.854-14.175c-2.902-3.317-7.713-4.978-14.432-4.978c-4.117,0-8.139,0.777-12.067,2.331
			c-3.927,1.556-8.042,3.802-12.339,6.741L454.526,90c9.189-6.382,17.857-9.575,26.007-9.575c7.391,0,12.741,1.933,16.05,5.796
			c3.308,3.864,4.412,9.156,3.312,15.876l-7.413,43.469H489.963z M480.452,138.763c5.039-2.855,9.367-7.391,12.982-13.609
			l2.096-12.6h-24.191c-6.889,0-12.439,1.24-16.658,3.717c-4.216,2.479-6.725,5.986-7.524,10.521
			c-0.859,4.873,0.149,8.801,3.026,11.781c2.877,2.982,7.168,4.473,12.882,4.473C469.616,143.046,475.413,141.618,480.452,138.763z"
			/>
		<path fill="#FFFFFF" d="M547.609,140.903c-4.749,3.109-9.391,4.662-13.926,4.662c-4.453,0-7.567-1.512-9.343-4.535
			c-1.779-3.023-2.146-7.477-1.109-13.355l7.664-43.471h-9.576l0.445-2.52h9.576l2.732-15.498h2.52l-2.732,15.498h22.932
			l-0.445,2.52h-22.932l-7.664,43.471c-0.889,5.039-0.617,8.863,0.814,11.465c1.429,2.605,3.949,3.906,7.562,3.906
			c4.199,0,8.309-1.387,12.325-4.158L547.609,140.903z"/>
	</g>
</g>
</svg>
